<?xml version="1.0" encoding="UTF-8"?>
<svg width="640px" height="480px" viewBox="0 0 640 480" version="1.1" xmlns="http://www.w3.org/2000/svg" xmlns:xlink="http://www.w3.org/1999/xlink">
    <!-- Generator: Sketch 48.2 (47327) - http://www.bohemiancoding.com/sketch -->
    <title>vehicle-placeholder</title>
    <desc>Created with Sketch.</desc>
    <defs></defs>
    <g id="Page-1" stroke="none" stroke-width="1" fill="none" fill-rule="evenodd">
        <g id="vehicle-placeholder">
            <rect id="Background" fill="#C9CED2" fill-rule="nonzero" x="0" y="0" width="640" height="480"></rect>
            <path d="M431.938781,212.752233 C432.218162,213.794316 431.504189,214.214973 430.551429,214.647581 L417.520825,220.589363 L422.814732,227.102378 C426.035968,231.191834 427.63584,236.631696 427.511671,243.505616 L427.511671,308.752883 C427.511671,311.417841 425.333934,313.6 422.669072,313.6 L387.22115,313.6 C384.556287,313.6 382.37855,311.410671 382.37855,308.752883 L382.37855,302.275719 L254.41979,302.275719 L254.41979,308.752883 C254.41979,311.417841 252.239665,313.6 249.57719,313.6 L214.12688,313.6 C211.462018,313.6 209.286669,311.40111 209.286669,308.752883 L209.286669,243.505616 C209.1625,236.631696 210.759985,231.191834 213.978833,227.102378 L219.275127,220.589363 L206.242136,214.647581 C205.296539,214.214973 204.584954,213.777585 204.859559,212.752233 L206.939393,204.972467 C207.639039,202.367261 210.356435,200.235294 212.940109,200.235294 L235.820675,200.235294 L255.537313,175.971026 C256.583199,174.680373 258.870778,172.237694 263.176107,171.690361 C306.301029,168.846146 330.494923,168.96087 373.619845,171.690361 C377.925174,172.237694 380.215141,174.680373 381.261028,175.971026 L400.977666,200.235294 L423.858231,200.235294 C426.453845,200.235294 429.159301,202.367261 429.856559,204.972467 L431.938781,212.752233 Z M263.995146,250.083164 L263.995146,244.191574 C263.995146,240.145139 260.659293,237.042793 256.642896,236.545652 L225.051383,232.625893 C223.329729,232.413174 221.901783,233.926106 221.901783,235.666097 L221.901783,242.191062 C221.901783,246.823071 225.686557,250.754781 230.302308,250.926868 L261.893821,252.109966 C263.042386,252.152988 263.995146,251.2328 263.995146,250.083164 Z M414.898945,242.188672 L414.896557,242.188672 L414.896557,235.661316 C414.896557,233.921325 413.463835,232.408394 411.746957,232.621113 L380.157832,236.540872 C376.143823,237.038012 372.805582,240.137969 372.805582,244.186793 L372.805582,250.080773 C372.805582,251.237581 373.74879,252.152988 374.906907,252.107576 L406.496032,250.924478 C411.118947,250.752391 414.898945,246.820681 414.898945,242.188672 Z M240.109288,216.609851 C300.43881,213.203962 336.35953,213.512284 396.686664,216.609851 C398.713965,216.894272 398.96708,215.486505 398.210125,214.422912 L374.121298,184.396119 C373.061084,183.093516 371.907743,182.381267 370.20758,182.175718 C327.615152,179.603974 309.347951,179.27653 266.59076,182.175718 C264.890597,182.381267 263.734868,183.093516 262.677042,184.396119 L238.588215,214.422912 C237.831261,215.486505 238.084375,216.894272 240.109288,216.609851 Z" id="Car" fill="#FFFFFF"></path>
        </g>
    </g>
</svg>